<svg xmlns="http://www.w3.org/2000/svg" width="166" height="124" viewBox="0 0 166 124" version="1.1"><path d="M 36.218 23.606 C 26.381 28.625, 25.259 43.776, 34.251 50.179 C 38.364 53.107, 45.712 53.705, 50.379 51.490 C 60.592 46.644, 61.932 31.360, 52.718 24.799 C 48.692 21.932, 40.641 21.350, 36.218 23.606" stroke="none" fill="#c2c7d1" fill-rule="evenodd"/><path d="M 19.241 7.995 C 17.448 9.088, 15.080 11.448, 13.978 13.241 C 12.040 16.391, 11.982 17.976, 12.237 60.678 C 12.492 103.571, 12.560 104.938, 14.571 107.678 C 19.351 114.191, 17.219 113.997, 84 113.997 C 150.781 113.997, 148.649 114.191, 153.429 107.678 C 155.440 104.938, 155.508 103.571, 155.763 60.678 C 156.018 17.976, 155.960 16.391, 154.022 13.241 C 152.920 11.448, 150.552 9.088, 148.759 7.995 C 145.600 6.069, 143.607 6.007, 84 6.007 C 24.393 6.007, 22.400 6.069, 19.241 7.995 M 36.218 23.606 C 26.381 28.625, 25.259 43.776, 34.251 50.179 C 38.364 53.107, 45.712 53.705, 50.379 51.490 C 60.592 46.644, 61.932 31.360, 52.718 24.799 C 48.692 21.932, 40.641 21.350, 36.218 23.606 M 90.006 58.494 L 70.530 77.989 62.494 69.994 C 57.925 65.449, 53.612 62, 52.496 62 C 51.344 62, 46.299 66.221, 40.267 72.232 L 30 82.464 30 89.232 L 30 96 84 96 L 138 96 138 80.236 L 138 64.471 125.236 51.736 C 118.216 44.731, 111.799 39, 110.976 39 C 110.154 39, 100.717 47.772, 90.006 58.494" stroke="none" fill="#abb1c0" fill-rule="evenodd"/><path d="M 90.006 58.494 L 70.530 77.989 62.494 69.994 C 57.925 65.449, 53.612 62, 52.496 62 C 51.344 62, 46.299 66.221, 40.267 72.232 L 30 82.464 30 89.232 L 30 96 84 96 L 138 96 138 80.236 L 138 64.471 125.236 51.736 C 118.216 44.731, 111.799 39, 110.976 39 C 110.154 39, 100.717 47.772, 90.006 58.494" stroke="none" fill="#8991a6" fill-rule="evenodd"/></svg>